<svg width="1000" height="1000" viewBox="0 0 1000 1000" version="1.1" xmlns="http://www.w3.org/2000/svg" xmlns:xlink="http://www.w3.org/1999/xlink">
<g id="Canvas" fill="none">
<g id="Group">
<g id="Rectangle">
<rect width="1000" height="1000" rx="2" fill="white"/>
<g mask="url(#path0_ins)">
<rect width="1000" height="1000" rx="2" stroke-width="20" stroke="#555555"/>
</g>
</g>
<g id="DarkBot">
<path d="M 78.6094 36.459C 85.4961 36.459 92.5228 37.1029 99.6895 38.3906C 106.856 39.6224 113.827 41.526 120.602 44.1016C 127.376 46.6771 133.759 49.9245 139.75 53.8438C 145.741 57.707 150.976 62.2422 155.455 67.4492C 159.934 72.6562 163.462 78.5352 166.037 85.0859C 168.669 91.6367 169.984 98.8874 169.984 106.838C 169.984 114.788 168.585 122.151 165.785 128.926C 162.986 135.701 159.066 141.551 154.027 146.479C 148.988 151.406 142.969 155.269 135.971 158.068C 128.972 160.868 121.273 162.268 112.875 162.268C 108.9 162.268 104.785 161.96 100.529 161.344C 96.2741 160.784 92.0189 159.888 87.7637 158.656C 83.5085 157.424 79.3092 155.913 75.166 154.121C 71.0788 152.273 67.1595 150.09 63.4082 147.57C 58.985 151.938 53.862 155.353 48.0391 157.816C 42.2721 160.224 36.1693 161.428 29.7305 161.428C 26.2591 161.428 23.0117 161.036 19.9883 160.252C 16.9648 159.468 14.3333 158.348 12.0938 156.893C 9.91016 155.437 8.17448 153.673 6.88672 151.602C 5.65495 149.53 5.03906 147.234 5.03906 144.715C 5.03906 142.531 5.57096 140.488 6.63477 138.584C 7.75456 136.68 9.29427 135.001 11.2539 133.545C 13.2695 132.089 15.6491 130.941 18.3926 130.102C 21.1921 129.262 24.2435 128.842 27.5469 128.842C 37.2891 128.842 48.8229 132.425 62.1484 139.592C 64.612 136.512 66.6276 133.041 68.1953 129.178C 69.931 124.867 71.2747 120.443 72.2266 115.908C 73.2344 111.317 74.1022 106.754 74.8301 102.219C 75.6139 97.6836 76.3978 93.2604 77.1816 88.9492C 78.0215 84.638 79.1413 80.5788 80.541 76.7715C 81.9967 72.9642 83.8724 69.4928 86.168 66.3574C 88.5195 63.166 91.571 60.4505 95.3223 58.2109C 95.8822 57.931 96.3861 57.791 96.834 57.791C 97.6178 57.791 98.3457 58.071 99.0176 58.6309C 99.7454 59.1908 100.109 59.9746 100.109 60.9824C 100.109 62.1582 99.5775 63.054 98.5137 63.6699C 95.5462 65.4056 93.1107 67.5892 91.207 70.2207C 89.3594 72.7962 87.8197 75.7077 86.5879 78.9551C 85.3561 82.2025 84.3763 85.7018 83.6484 89.4531C 82.9206 93.2044 82.2207 97.1237 81.5488 101.211C 80.9889 104.57 80.373 108.098 79.7012 111.793C 79.0293 115.432 78.1895 119.072 77.1816 122.711C 76.1738 126.294 74.8861 129.822 73.3184 133.293C 71.8066 136.708 69.931 139.872 67.6914 142.783C 67.8034 142.839 67.8594 142.895 67.8594 142.951C 67.9154 142.951 67.9993 142.979 68.1113 143.035C 75.222 147.29 82.6126 150.51 90.2832 152.693C 97.9538 154.877 105.456 155.969 112.791 155.969C 120.742 155.969 127.852 154.653 134.123 152.021C 140.45 149.39 145.797 145.863 150.164 141.439C 154.531 136.96 157.863 131.753 160.158 125.818C 162.454 119.883 163.602 113.613 163.602 107.006C 163.602 100.287 162.482 94.0443 160.242 88.2773C 158.003 82.4544 154.923 77.1634 151.004 72.4043C 147.141 67.6452 142.521 63.418 137.146 59.7227C 131.827 56.0273 126.061 52.9479 119.846 50.4844C 113.687 47.9648 107.192 46.0612 100.361 44.7734C 93.5866 43.4297 86.7839 42.7578 79.9531 42.7578C 70.7708 42.7578 62.3724 43.5417 54.7578 45.1094C 47.1992 46.6211 40.6764 48.8607 35.1895 51.8281C 29.7585 54.7956 25.5312 58.4349 22.5078 62.7461C 19.4844 67.0573 17.9727 71.9564 17.9727 77.4434C 17.9727 80.5788 18.4206 83.3503 19.3164 85.7578C 20.2682 88.1654 21.444 90.265 22.8438 92.0566C 24.2995 93.7923 25.8672 95.276 27.5469 96.5078C 29.2266 97.7396 30.7943 98.7474 32.25 99.5312C 33.7057 100.259 34.9375 100.791 35.9453 101.127C 37.0091 101.463 37.625 101.659 37.793 101.715C 38.5208 101.883 39.0807 102.275 39.4727 102.891C 39.9206 103.451 40.1445 104.094 40.1445 104.822C 40.1445 105.774 39.8086 106.502 39.1367 107.006C 38.4648 107.51 37.737 107.762 36.9531 107.762C 35.8333 107.762 34.4336 107.51 32.7539 107.006C 31.0742 106.446 29.2826 105.634 27.3789 104.57C 25.5312 103.451 23.6556 102.079 21.752 100.455C 19.9043 98.7754 18.2246 96.8158 16.7129 94.5762C 15.2012 92.3366 13.9694 89.7891 13.0176 86.9336C 12.1217 84.0781 11.6738 80.9147 11.6738 77.4434C 11.6738 71.1165 13.2695 65.4336 16.4609 60.3945C 19.7083 55.2995 24.2715 50.9883 30.1504 47.4609C 36.0293 43.9336 43.056 41.2181 51.2305 39.3145C 59.4609 37.4108 68.5872 36.459 78.6094 36.459ZM 57.6133 144.379C 51.7904 141.299 46.3874 138.976 41.4043 137.408C 36.4212 135.84 31.8581 135.057 27.7148 135.057C 25.3633 135.057 23.1797 135.337 21.1641 135.896C 19.2044 136.4 17.4967 137.1 16.041 137.996C 14.5853 138.892 13.4375 139.928 12.5977 141.104C 11.7578 142.279 11.3379 143.511 11.3379 144.799C 11.3379 146.031 11.7018 147.262 12.4297 148.494C 13.2135 149.726 14.3613 150.818 15.873 151.77C 17.4408 152.721 19.3724 153.505 21.668 154.121C 23.9635 154.737 26.651 155.045 29.7305 155.045C 34.9935 155.045 40.0046 154.121 44.7637 152.273C 49.5788 150.37 53.862 147.738 57.6133 144.379ZM 243.975 136.568C 243.751 137.016 243.275 137.968 242.547 139.424C 241.875 140.824 240.979 142.447 239.859 144.295C 238.796 146.143 237.536 148.074 236.08 150.09C 234.624 152.105 233.001 153.953 231.209 155.633C 229.417 157.312 227.486 158.712 225.414 159.832C 223.342 160.896 221.159 161.428 218.863 161.428C 215.616 161.428 212.872 160.392 210.633 158.32C 208.449 156.249 206.854 153.645 205.846 150.51C 203.942 153.701 201.674 156.249 199.043 158.152C 196.411 160 193.78 160.924 191.148 160.924C 189.077 160.924 187.201 160.56 185.521 159.832C 183.842 159.048 182.414 157.984 181.238 156.641C 180.062 155.241 179.139 153.617 178.467 151.77C 177.851 149.922 177.543 147.906 177.543 145.723C 177.543 141.355 178.271 137.52 179.727 134.217C 181.238 130.857 183.142 128.058 185.438 125.818C 187.733 123.579 190.253 121.899 192.996 120.779C 195.796 119.66 198.483 119.1 201.059 119.1C 202.794 119.1 204.39 119.352 205.846 119.855C 207.301 120.303 208.533 120.807 209.541 121.367C 210.605 121.927 211.417 122.459 211.977 122.963C 212.536 123.411 212.844 123.663 212.9 123.719C 213.516 124.447 213.824 125.202 213.824 125.986C 213.824 126.826 213.516 127.582 212.9 128.254C 212.285 128.87 211.557 129.178 210.717 129.178C 209.821 129.178 209.065 128.87 208.449 128.254C 208.337 128.142 208.085 127.946 207.693 127.666C 207.301 127.33 206.77 126.994 206.098 126.658C 205.426 126.322 204.614 126.042 203.662 125.818C 202.766 125.538 201.73 125.398 200.555 125.398C 198.819 125.398 196.971 125.79 195.012 126.574C 193.052 127.358 191.26 128.59 189.637 130.27C 188.013 131.893 186.641 133.965 185.521 136.484C 184.458 138.948 183.926 141.887 183.926 145.303C 183.926 146.367 184.038 147.458 184.262 148.578C 184.486 149.642 184.878 150.622 185.438 151.518C 185.997 152.413 186.753 153.141 187.705 153.701C 188.657 154.261 189.833 154.541 191.232 154.541C 192.24 154.541 193.388 154.205 194.676 153.533C 196.02 152.861 197.279 151.826 198.455 150.426C 199.687 149.026 200.779 147.262 201.73 145.135C 202.738 143.007 203.438 140.488 203.83 137.576C 203.942 136.792 204.306 136.148 204.922 135.645C 205.538 135.085 206.266 134.805 207.105 134.805C 207.889 134.805 208.561 135.113 209.121 135.729C 209.737 136.344 210.073 137.044 210.129 137.828C 210.185 138.892 210.297 140.404 210.465 142.363C 210.633 144.267 210.997 146.171 211.557 148.074C 212.173 149.978 213.068 151.63 214.244 153.029C 215.42 154.429 217.044 155.129 219.115 155.129C 220.459 155.129 221.775 154.765 223.062 154.037C 224.406 153.309 225.694 152.357 226.926 151.182C 228.214 149.95 229.417 148.578 230.537 147.066C 231.713 145.499 232.777 143.931 233.729 142.363C 234.68 140.796 235.52 139.284 236.248 137.828C 236.976 136.372 237.592 135.113 238.096 134.049C 238.376 133.433 238.768 132.957 239.271 132.621C 239.831 132.285 240.419 132.117 241.035 132.117C 241.987 132.117 242.743 132.481 243.303 133.209C 243.919 133.881 244.227 134.609 244.227 135.393C 244.227 135.785 244.143 136.176 243.975 136.568ZM 246.998 125.482C 246.774 126.994 246.494 128.422 246.158 129.766C 245.822 131.053 245.486 132.201 245.15 133.209C 244.87 134.161 244.618 134.945 244.395 135.561C 244.171 136.176 244.031 136.512 243.975 136.568C 243.415 137.856 242.435 138.5 241.035 138.5C 240.251 138.5 239.523 138.22 238.852 137.66C 238.18 137.044 237.844 136.288 237.844 135.393C 237.844 135.057 237.9 134.805 238.012 134.637C 238.124 134.469 238.292 134.133 238.516 133.629C 238.74 133.125 239.02 132.285 239.355 131.109C 239.691 129.934 240.111 128.114 240.615 125.65C 239.663 125.65 238.684 125.622 237.676 125.566C 236.668 125.51 235.744 125.314 234.904 124.979C 234.008 124.643 233.281 124.111 232.721 123.383C 232.161 122.655 231.881 121.647 231.881 120.359C 231.881 119.408 232.161 118.12 232.721 116.496C 233.225 114.872 233.924 113.277 234.82 111.709C 235.716 110.141 236.724 108.798 237.844 107.678C 238.964 106.502 240.083 105.914 241.203 105.914C 242.491 105.914 243.527 106.39 244.311 107.342C 245.15 108.294 245.794 109.469 246.242 110.869C 246.69 112.213 246.998 113.641 247.166 115.152C 247.39 116.664 247.502 117.98 247.502 119.1C 248.454 119.1 249.378 119.1 250.273 119.1C 251.225 119.044 252.121 119.016 252.961 119.016C 256.152 119.016 258.588 119.715 260.268 121.115C 261.947 122.515 262.787 124.811 262.787 128.002C 262.787 129.29 262.703 130.633 262.535 132.033C 262.367 133.433 262.171 134.889 261.947 136.4C 261.723 137.856 261.527 139.312 261.359 140.768C 261.191 142.223 261.107 143.651 261.107 145.051C 261.107 147.066 261.387 148.746 261.947 150.09C 262.507 151.378 263.207 152.413 264.047 153.197C 264.887 153.981 265.783 154.541 266.734 154.877C 267.686 155.157 268.554 155.297 269.338 155.297C 271.745 155.297 274.013 154.513 276.141 152.945C 278.268 151.378 280.228 149.502 282.02 147.318C 283.811 145.079 285.407 142.727 286.807 140.264C 288.262 137.8 289.466 135.645 290.418 133.797C 290.698 133.293 291.09 132.901 291.594 132.621C 292.098 132.341 292.63 132.201 293.189 132.201C 294.197 132.201 294.981 132.537 295.541 133.209C 296.101 133.825 296.381 134.525 296.381 135.309C 296.381 135.868 296.269 136.372 296.045 136.82C 294.757 139.116 293.245 141.719 291.51 144.631C 289.83 147.486 287.898 150.174 285.715 152.693C 283.531 155.213 281.068 157.34 278.324 159.076C 275.637 160.812 272.669 161.68 269.422 161.68C 267.406 161.68 265.503 161.288 263.711 160.504C 261.919 159.776 260.352 158.712 259.008 157.312C 257.72 155.857 256.684 154.093 255.9 152.021C 255.117 149.894 254.725 147.514 254.725 144.883C 254.725 142.083 255.005 139.312 255.564 136.568C 256.124 133.769 256.404 131.109 256.404 128.59C 256.404 127.526 256.152 126.742 255.648 126.238C 255.201 125.678 254.165 125.398 252.541 125.398C 251.757 125.398 250.889 125.398 249.938 125.398C 249.042 125.398 248.062 125.426 246.998 125.482ZM 241.371 119.268C 241.371 118.876 241.343 118.372 241.287 117.756C 241.287 117.084 241.231 116.44 241.119 115.824C 241.063 115.208 240.951 114.676 240.783 114.229C 240.671 113.781 240.531 113.557 240.363 113.557C 240.195 113.557 239.971 113.781 239.691 114.229C 239.467 114.62 239.215 115.124 238.936 115.74C 238.656 116.3 238.404 116.916 238.18 117.588C 237.956 118.26 237.788 118.82 237.676 119.268L 241.371 119.268ZM 311.582 149.67C 312.534 151.798 314.102 153.505 316.285 154.793C 318.469 156.025 320.932 156.641 323.676 156.641C 324.516 156.641 325.887 156.529 327.791 156.305C 329.695 156.025 331.878 155.185 334.342 153.785C 336.861 152.329 339.521 150.062 342.32 146.982C 345.12 143.903 347.835 139.564 350.467 133.965C 350.747 133.349 351.139 132.901 351.643 132.621C 352.146 132.285 352.706 132.117 353.322 132.117C 354.274 132.117 355.03 132.453 355.59 133.125C 356.206 133.797 356.514 134.525 356.514 135.309C 356.514 135.645 356.402 136.092 356.178 136.652C 354.218 140.74 352.035 144.407 349.627 147.654C 347.219 150.846 344.616 153.589 341.816 155.885C 339.017 158.124 336.077 159.832 332.998 161.008C 329.975 162.24 326.867 162.855 323.676 162.855C 321.156 162.855 318.777 162.464 316.537 161.68C 314.354 160.896 312.45 159.86 310.826 158.572C 309.258 157.229 307.999 155.745 307.047 154.121C 306.151 152.441 305.703 150.734 305.703 148.998C 305.703 148.774 305.731 148.466 305.787 148.074C 305.843 147.682 305.983 147.262 306.207 146.814C 306.487 146.311 306.851 145.863 307.299 145.471C 307.803 145.023 308.475 144.659 309.314 144.379C 311.61 143.707 313.71 142.895 315.613 141.943C 317.573 140.936 319.253 139.816 320.652 138.584C 322.052 137.352 323.144 136.008 323.928 134.553C 324.712 133.041 325.104 131.417 325.104 129.682C 325.104 128.17 324.6 126.938 323.592 125.986C 322.584 125.035 321.352 124.559 319.896 124.559C 318.385 124.559 316.901 125.09 315.445 126.154C 313.99 127.162 312.562 128.534 311.162 130.27C 309.818 131.949 308.531 133.909 307.299 136.148C 306.067 138.332 304.919 140.628 303.855 143.035C 302.848 145.443 301.952 147.85 301.168 150.258C 300.384 152.609 299.74 154.793 299.236 156.809C 299.068 157.424 298.872 158.096 298.648 158.824C 298.48 159.552 298.201 160.224 297.809 160.84C 297.417 161.512 296.941 162.044 296.381 162.436C 295.821 162.883 295.093 163.107 294.197 163.107C 293.357 163.107 292.546 162.743 291.762 162.016C 290.978 161.344 290.586 160.168 290.586 158.488C 290.586 158.152 290.586 156.865 290.586 154.625C 290.642 152.385 290.698 149.474 290.754 145.891C 290.81 142.251 290.866 138.108 290.922 133.461C 291.034 128.758 291.118 123.803 291.174 118.596C 291.23 113.333 291.314 107.93 291.426 102.387C 291.538 96.8438 291.622 91.4408 291.678 86.1777C 291.734 80.9147 291.79 75.9316 291.846 71.2285C 291.958 66.4694 292.042 62.2702 292.098 58.6309C 292.154 54.9355 292.182 51.9401 292.182 49.6445C 292.238 47.293 292.266 45.8932 292.266 45.4453C 292.266 44.5495 292.602 43.8216 293.273 43.2617C 293.945 42.6458 294.673 42.3379 295.457 42.3379C 296.353 42.3379 297.109 42.6458 297.725 43.2617C 298.34 43.8216 298.648 44.5775 298.648 45.5293C 298.648 45.6413 298.62 46.7611 298.564 48.8887C 298.564 50.9603 298.536 53.7598 298.48 57.2871C 298.424 60.8145 298.34 64.9297 298.229 69.6328C 298.173 74.3359 298.089 79.347 297.977 84.666C 297.921 89.929 297.837 95.36 297.725 100.959C 297.669 106.558 297.585 112.017 297.473 117.336C 297.417 122.655 297.361 127.722 297.305 132.537C 297.249 137.352 297.193 141.607 297.137 145.303C 298.033 142.447 299.18 139.452 300.58 136.316C 301.98 133.125 303.632 130.186 305.535 127.498C 307.439 124.811 309.566 122.599 311.918 120.863C 314.326 119.128 316.985 118.26 319.896 118.26C 321.52 118.26 323.032 118.568 324.432 119.184C 325.831 119.743 327.035 120.555 328.043 121.619C 329.107 122.627 329.919 123.831 330.479 125.23C 331.094 126.63 331.402 128.142 331.402 129.766C 331.402 132.285 330.842 134.609 329.723 136.736C 328.603 138.808 327.119 140.684 325.271 142.363C 323.424 143.987 321.296 145.415 318.889 146.646C 316.537 147.878 314.102 148.886 311.582 149.67ZM 505.082 101.631C 509.897 102.975 513.984 104.514 517.344 106.25C 520.759 107.986 523.615 109.805 525.91 111.709C 528.262 113.557 530.109 115.46 531.453 117.42C 532.797 119.38 533.833 121.255 534.561 123.047C 535.288 124.839 535.736 126.518 535.904 128.086C 536.128 129.598 536.24 130.885 536.24 131.949C 536.24 135.868 535.484 139.368 533.973 142.447C 532.517 145.527 530.529 148.242 528.01 150.594C 525.49 152.945 522.551 154.933 519.191 156.557C 515.888 158.18 512.417 159.496 508.777 160.504C 505.138 161.568 501.415 162.324 497.607 162.771C 493.8 163.275 490.189 163.527 486.773 163.527C 481.23 163.527 475.492 162.967 469.557 161.848C 463.678 160.728 457.715 158.908 451.668 156.389C 450.324 155.829 449.652 154.849 449.652 153.449C 449.652 152.497 449.988 151.742 450.66 151.182C 451.332 150.566 452.06 150.258 452.844 150.258C 453.236 150.258 453.656 150.342 454.104 150.51C 459.311 152.693 464.658 154.345 470.145 155.465C 475.632 156.585 481.146 157.145 486.689 157.145C 494.248 157.145 500.743 156.417 506.174 154.961C 511.605 153.505 516.056 151.602 519.527 149.25C 523.055 146.842 525.658 144.155 527.338 141.188C 529.018 138.164 529.857 135.113 529.857 132.033C 529.857 128.618 528.906 125.454 527.002 122.543C 525.154 119.632 522.495 117.028 519.023 114.732C 515.608 112.437 511.493 110.477 506.678 108.854C 501.863 107.23 496.516 106.026 490.637 105.242C 486.773 105.914 483.022 106.39 479.383 106.67C 475.743 106.95 472.384 107.09 469.305 107.09L 467.373 107.09C 466.981 107.09 466.617 107.062 466.281 107.006C 462.25 116.692 457.435 125.062 451.836 132.117C 446.293 139.172 440.358 145.023 434.031 149.67C 427.76 154.261 421.294 157.676 414.631 159.916C 408.024 162.1 401.669 163.191 395.566 163.191C 389.24 163.191 383.417 162.296 378.098 160.504C 372.835 158.768 368.299 156.277 364.492 153.029C 360.685 149.782 357.717 145.863 355.59 141.271C 353.462 136.624 352.398 131.445 352.398 125.734C 352.398 119.799 353.546 113.669 355.842 107.342C 358.193 100.959 361.665 94.4922 366.256 87.9414C 370.623 81.7826 375.466 76.2676 380.785 71.3965C 386.104 66.4694 391.675 62.1582 397.498 58.4629C 403.377 54.7676 409.424 51.6042 415.639 48.9727C 421.854 46.3411 428.012 44.1855 434.115 42.5059C 440.274 40.8262 446.265 39.6224 452.088 38.8945C 457.967 38.1107 463.482 37.7188 468.633 37.7188C 472.832 37.7188 476.835 37.8587 480.643 38.1387C 484.45 38.4186 488.089 38.8385 491.561 39.3984C 493.576 37.1589 495.2 35.5632 496.432 34.6113C 497.663 33.6035 498.363 33.0436 498.531 32.9316C 499.203 32.5957 499.791 32.4277 500.295 32.4277C 501.079 32.4277 501.779 32.6517 502.395 33.0996C 503.01 33.5475 503.318 34.1914 503.318 35.0312C 503.318 36.151 502.926 37.1029 502.143 37.8867C 501.359 38.6146 500.295 39.6224 498.951 40.9102C 509.197 43.4297 517.036 47.237 522.467 52.332C 527.898 57.3711 530.613 63.6139 530.613 71.0605C 530.613 75.1478 529.941 78.8151 528.598 82.0625C 527.254 85.3099 525.406 88.1654 523.055 90.6289C 520.759 93.0924 518.044 95.248 514.908 97.0957C 511.829 98.8874 508.553 100.399 505.082 101.631ZM 490.721 98.8594C 493.184 98.4115 495.704 97.8236 498.279 97.0957C 500.911 96.3678 503.458 95.5 505.922 94.4922C 508.441 93.4284 510.821 92.1966 513.061 90.7969C 515.3 89.3411 517.232 87.6615 518.855 85.7578C 520.535 83.7982 521.851 81.6146 522.803 79.207C 523.811 76.7995 524.314 74.056 524.314 70.9766C 524.314 64.7057 521.711 59.5267 516.504 55.4395C 511.297 51.3522 503.822 48.3288 494.08 46.3691C 491.281 49.8405 488.649 53.6758 486.186 57.875C 483.722 62.0742 481.454 66.4414 479.383 70.9766C 477.311 75.4557 475.436 80.0189 473.756 84.666C 472.132 89.2572 470.788 93.7083 469.725 98.0195C 470.844 97.9635 471.88 97.9355 472.832 97.9355C 473.784 97.9355 474.596 97.9355 475.268 97.9355C 477.451 97.9355 479.831 98.0195 482.406 98.1875C 484.982 98.2995 487.753 98.5234 490.721 98.8594ZM 486.941 45.1934C 484.086 44.8014 481.146 44.5215 478.123 44.3535C 475.1 44.1855 471.936 44.1016 468.633 44.1016C 463.706 44.1016 458.471 44.4655 452.928 45.1934C 447.385 45.9212 441.702 47.069 435.879 48.6367C 430.056 50.2044 424.177 52.248 418.242 54.7676C 412.363 57.2311 406.624 60.2266 401.025 63.7539C 395.482 67.2253 390.191 71.2845 385.152 75.9316C 380.113 80.5788 375.522 85.8138 371.379 91.6367C 367.18 97.5716 364.016 103.423 361.889 109.189C 359.761 114.956 358.697 120.443 358.697 125.65C 358.697 130.521 359.565 134.889 361.301 138.752C 363.092 142.615 365.612 145.891 368.859 148.578C 372.107 151.21 375.998 153.253 380.533 154.709C 385.068 156.109 390.079 156.809 395.566 156.809C 401.053 156.809 406.764 155.829 412.699 153.869C 418.634 151.854 424.429 148.802 430.084 144.715C 435.739 140.572 441.114 135.365 446.209 129.094C 451.304 122.767 455.755 115.264 459.562 106.586C 458.555 106.586 457.519 106.306 456.455 105.746C 455.391 105.13 454.859 104.178 454.859 102.891C 454.859 101.547 455.503 100.595 456.791 100.035C 458.079 99.4193 460.094 98.9154 462.838 98.5234C 464.35 93.9323 465.889 89.3411 467.457 84.75C 469.025 80.1589 470.76 75.6237 472.664 71.1445C 474.568 66.6654 476.667 62.2702 478.963 57.959C 481.258 53.5918 483.918 49.3366 486.941 45.1934ZM 587.471 150.762C 586.071 150.762 584.839 150.65 583.775 150.426C 582.936 152.105 581.928 153.673 580.752 155.129C 579.576 156.529 578.204 157.76 576.637 158.824C 575.125 159.888 573.417 160.728 571.514 161.344C 569.61 161.96 567.538 162.268 565.299 162.268C 562.667 162.268 560.26 161.792 558.076 160.84C 555.893 159.944 553.989 158.684 552.365 157.061C 550.742 155.381 549.482 153.393 548.586 151.098C 547.69 148.746 547.242 146.171 547.242 143.371C 547.242 139.788 547.886 136.68 549.174 134.049C 550.462 131.361 551.945 129.15 553.625 127.414C 555.305 125.622 556.984 124.307 558.664 123.467C 560.344 122.571 561.604 122.123 562.443 122.123C 563.395 122.123 564.095 122.375 564.543 122.879C 565.047 123.383 565.299 124.055 565.299 124.895C 565.299 125.846 564.991 126.574 564.375 127.078C 563.815 127.526 563.087 127.974 562.191 128.422C 561.296 128.87 560.344 129.514 559.336 130.354C 558.328 131.137 557.376 132.145 556.48 133.377C 555.641 134.609 554.941 136.064 554.381 137.744C 553.821 139.424 553.541 141.299 553.541 143.371C 553.541 145.219 553.821 146.954 554.381 148.578C 554.941 150.146 555.753 151.518 556.816 152.693C 557.88 153.813 559.14 154.709 560.596 155.381C 562.051 155.997 563.675 156.305 565.467 156.305C 568.658 156.305 571.29 155.577 573.361 154.121C 575.489 152.609 577.113 150.706 578.232 148.41C 574.929 146.674 572.214 144.211 570.086 141.02C 567.958 137.828 566.895 134.245 566.895 130.27C 566.895 127.078 567.65 124.475 569.162 122.459C 570.73 120.443 572.773 119.436 575.293 119.436C 576.805 119.436 578.232 119.799 579.576 120.527C 580.92 121.255 582.096 122.403 583.104 123.971C 584.167 125.538 585.007 127.554 585.623 130.018C 586.239 132.481 586.547 135.421 586.547 138.836C 586.547 140.628 586.323 142.503 585.875 144.463C 586.211 144.519 586.547 144.547 586.883 144.547C 587.219 144.547 587.583 144.547 587.975 144.547C 589.878 144.547 591.586 144.323 593.098 143.875C 594.609 143.427 595.981 142.755 597.213 141.859C 598.445 140.964 599.536 139.816 600.488 138.416C 601.496 137.016 602.448 135.393 603.344 133.545C 603.512 133.209 603.876 132.901 604.436 132.621C 604.995 132.285 605.555 132.117 606.115 132.117C 606.843 132.117 607.515 132.425 608.131 133.041C 608.803 133.601 609.139 134.357 609.139 135.309C 609.139 135.757 609.027 136.26 608.803 136.82C 608.579 137.324 608.355 137.8 608.131 138.248C 607.179 139.928 606.059 141.551 604.771 143.119C 603.54 144.631 602.056 145.975 600.32 147.15C 598.641 148.27 596.737 149.166 594.609 149.838C 592.482 150.51 590.102 150.818 587.471 150.762ZM 573.109 129.598C 573.109 130.661 573.249 131.781 573.529 132.957C 573.809 134.133 574.229 135.309 574.789 136.484C 575.405 137.604 576.133 138.696 576.973 139.76C 577.868 140.768 578.904 141.635 580.08 142.363C 580.248 141.188 580.332 140.04 580.332 138.92C 580.332 137.408 580.22 135.868 579.996 134.301C 579.772 132.733 579.436 131.305 578.988 130.018C 578.596 128.674 578.092 127.61 577.477 126.826C 576.861 125.986 576.133 125.566 575.293 125.566C 574.957 125.566 574.509 125.818 573.949 126.322C 573.389 126.826 573.109 127.918 573.109 129.598ZM 671.203 75.9316C 671.203 76.8275 670.895 77.5553 670.279 78.1152C 669.663 78.6191 668.908 78.8711 668.012 78.8711L 625.432 78.8711L 625.432 79.7949C 625.432 83.2103 625.18 86.8496 624.676 90.7129C 624.172 94.5762 623.472 98.4395 622.576 102.303C 621.736 106.11 620.757 109.833 619.637 113.473C 618.573 117.112 617.453 120.471 616.277 123.551C 615.158 126.63 614.038 129.318 612.918 131.613C 611.798 133.853 610.79 135.533 609.895 136.652C 610.622 139.228 611.49 141.635 612.498 143.875C 613.506 146.059 614.626 147.99 615.857 149.67C 617.145 151.294 618.517 152.581 619.973 153.533C 621.428 154.485 622.996 154.961 624.676 154.961C 626.635 154.961 628.567 154.149 630.471 152.525C 632.43 150.846 634.222 148.886 635.846 146.646C 637.525 144.351 638.981 142.055 640.213 139.76C 641.501 137.408 642.424 135.533 642.984 134.133C 643.544 132.789 644.524 132.117 645.924 132.117C 646.876 132.117 647.632 132.453 648.191 133.125C 648.807 133.797 649.115 134.525 649.115 135.309C 649.115 135.701 649.031 136.092 648.863 136.484C 648.695 136.876 648.275 137.772 647.604 139.172C 646.988 140.572 646.148 142.195 645.084 144.043C 644.076 145.891 642.872 147.85 641.473 149.922C 640.129 151.938 638.589 153.785 636.854 155.465C 635.174 157.145 633.354 158.544 631.395 159.664C 629.435 160.784 627.363 161.344 625.18 161.344C 621.316 161.344 617.845 160.084 614.766 157.564C 611.686 155.045 609.055 151.518 606.871 146.982C 604.743 142.447 603.12 137.072 602 130.857C 600.88 124.643 600.32 117.84 600.32 110.449C 600.32 108.602 600.348 106.446 600.404 103.982C 600.46 101.463 600.572 98.8314 600.74 96.0879C 600.908 93.2884 601.16 90.4329 601.496 87.5215C 601.832 84.554 602.28 81.6706 602.84 78.8711L 572.689 78.8711C 571.794 78.8711 571.038 78.6191 570.422 78.1152C 569.806 77.5553 569.498 76.8275 569.498 75.9316C 569.498 75.0358 569.806 74.3359 570.422 73.832C 571.038 73.2721 571.794 72.9922 572.689 72.9922L 604.268 72.9922C 604.827 70.9766 605.471 69.1289 606.199 67.4492C 606.983 65.7695 607.851 64.3138 608.803 63.082C 609.811 61.8503 610.902 60.8984 612.078 60.2266C 613.31 59.4987 614.654 59.1348 616.109 59.1348C 617.509 59.1348 618.713 59.4987 619.721 60.2266C 620.785 60.8984 621.68 61.8503 622.408 63.082C 623.136 64.3138 623.696 65.7695 624.088 67.4492C 624.536 69.1289 624.872 70.9766 625.096 72.9922L 668.012 72.9922C 668.908 72.9922 669.663 73.2721 670.279 73.832C 670.895 74.3359 671.203 75.0358 671.203 75.9316ZM 607.963 128.254C 609.643 124.559 611.154 120.583 612.498 116.328C 613.898 112.017 615.074 107.678 616.025 103.311C 617.033 98.9434 617.789 94.6602 618.293 90.4609C 618.853 86.2617 619.133 82.3984 619.133 78.8711L 609.223 78.8711C 608.439 82.3424 607.795 86.6536 607.291 91.8047C 606.843 96.8997 606.619 103.115 606.619 110.449C 606.619 114.536 606.731 117.98 606.955 120.779C 607.179 123.523 607.515 126.014 607.963 128.254ZM 615.773 65.4336C 615.27 65.4336 614.542 65.9935 613.59 67.1133C 612.638 68.1771 611.686 70.1367 610.734 72.9922L 618.797 72.9922C 618.517 70.6406 618.097 68.793 617.537 67.4492C 617.033 66.1055 616.445 65.4336 615.773 65.4336ZM 609.307 134.301L 609.307 134.385L 609.307 134.301Z" transform="translate(179 274)" fill="#4B4B4B"/>
</g>
<g id="an other free fullpage.js theme">
<path d="M 80.4444 21.218C 79.6884 24.438 79.3104 27.672 79.3104 30.92C 79.3104 34.14 79.6744 37.332 80.4024 40.496C 79.3944 40.832 78.3584 41 77.2944 41C 76.2304 41 75.4884 40.692 75.0684 40.076C 74.6484 39.432 74.4384 38.522 74.4384 37.346C 74.4384 36.142 74.6204 34.504 74.9844 32.432C 72.9964 36.688 71.0784 39.376 69.2304 40.496C 68.3904 41 67.5224 41.252 66.6264 41.252C 64.4984 41.252 62.8464 40.468 61.6704 38.9C 60.4944 37.304 59.9064 35.33 59.9064 32.978C 59.9064 29.394 60.9004 26.258 62.8884 23.57C 64.8764 20.854 67.4524 19.496 70.6164 19.496C 73.8084 19.496 77.0844 20.07 80.4444 21.218ZM 74.9424 23.738C 73.4584 23.29 72.1984 23.066 71.1624 23.066C 69.0624 23.066 67.4944 23.528 66.4584 24.452C 65.5064 26.804 65.0304 29.198 65.0304 31.634C 65.0304 32.922 65.2264 34.224 65.6184 35.54C 66.0384 36.856 66.6684 37.514 67.5084 37.514C 68.4884 37.514 69.7484 36.072 71.2884 33.188C 72.8284 30.304 74.0464 27.154 74.9424 23.738ZM 103.709 24.032L 103.289 33.272C 103.289 35.82 103.681 38.312 104.465 40.748C 103.681 41.084 102.785 41.252 101.777 41.252C 99.3971 41.252 98.2071 39.922 98.2071 37.262C 98.2071 36.058 98.3611 34.042 98.6691 31.214C 98.9771 28.358 99.1311 26.566 99.1311 25.838C 99.1311 24.438 98.5011 23.738 97.2411 23.738C 96.3171 23.738 95.2671 24.41 94.0911 25.754C 92.9431 27.07 91.9491 28.554 91.1091 30.206C 90.2971 31.83 89.8211 33.174 89.6811 34.238C 89.7931 36.422 90.0731 38.508 90.5211 40.496C 89.6251 40.832 88.6871 41 87.7071 41C 86.7551 41 85.9711 40.776 85.3551 40.328C 84.7671 39.852 84.4731 39.208 84.4731 38.396C 84.4731 37.556 84.5991 36.072 84.8511 33.944C 85.1031 31.788 85.2291 29.66 85.2291 27.56C 85.2291 25.432 84.9071 22.996 84.2631 20.252C 85.1591 19.916 86.1111 19.748 87.1191 19.748C 88.1271 19.748 88.9391 20.042 89.5551 20.63C 90.1991 21.218 90.5211 21.946 90.5211 22.814C 90.5211 23.682 90.4091 25.068 90.1851 26.972C 91.2491 24.984 92.6351 23.248 94.3431 21.764C 96.0511 20.252 97.7591 19.496 99.4671 19.496C 102.295 19.496 103.709 21.008 103.709 24.032ZM 128.244 41.504C 125.164 41.504 122.896 40.608 121.44 38.816C 119.984 36.996 119.256 34.476 119.256 31.256C 119.256 28.008 120.222 25.194 122.154 22.814C 124.086 20.434 126.564 19.244 129.588 19.244C 135.804 19.244 138.912 22.744 138.912 29.744C 138.912 33.02 137.904 35.806 135.888 38.102C 133.872 40.37 131.324 41.504 128.244 41.504ZM 125.22 23.864C 124.716 25.488 124.464 27.112 124.464 28.736C 124.464 30.36 124.52 31.62 124.632 32.516C 124.744 33.412 124.954 34.308 125.262 35.204C 125.906 37.024 127.166 37.934 129.042 37.934C 130.946 37.934 132.192 37.43 132.78 36.422C 133.396 35.414 133.704 33.86 133.704 31.76C 133.704 25.796 132.29 22.814 129.462 22.814C 127.838 22.814 126.424 23.164 125.22 23.864ZM 143.853 13.574C 144.749 13.126 145.659 12.902 146.583 12.902C 147.507 12.902 148.249 13.196 148.809 13.784C 149.397 14.372 149.691 15.24 149.691 16.388C 149.691 17.536 149.621 18.838 149.481 20.294C 151.581 20.294 153.583 20 155.487 19.412C 155.823 19.972 155.991 20.63 155.991 21.386C 155.991 22.114 155.655 22.716 154.983 23.192C 154.339 23.64 153.681 23.864 153.009 23.864C 152.337 23.864 151.581 23.78 150.741 23.612C 149.901 23.444 149.355 23.346 149.103 23.318C 149.075 23.57 148.991 24.074 148.851 24.83C 148.739 25.586 148.641 26.244 148.557 26.804C 148.333 28.344 148.221 29.996 148.221 31.76C 148.221 35.596 149.467 37.514 151.959 37.514C 152.883 37.514 153.947 37.192 155.151 36.548C 155.515 37.08 155.697 37.766 155.697 38.606C 155.697 39.446 155.235 40.104 154.311 40.58C 153.415 41.028 152.337 41.252 151.077 41.252C 146.149 41.252 143.685 38.452 143.685 32.852C 143.685 32.04 143.797 30.57 144.021 28.442C 144.273 26.314 144.399 24.592 144.399 23.276C 143.055 23.36 141.977 23.598 141.165 23.99C 140.829 23.486 140.661 22.912 140.661 22.268C 140.661 21.596 140.899 21.05 141.375 20.63C 141.851 20.182 142.439 19.958 143.139 19.958C 143.839 19.958 144.301 19.972 144.525 20C 144.553 19.776 144.567 19.482 144.567 19.118C 144.567 17.018 144.329 15.17 143.853 13.574ZM 178.19 24.032L 177.77 33.272C 177.77 35.736 178.176 38.228 178.988 40.748C 178.12 41.084 177.238 41.252 176.342 41.252C 173.906 41.252 172.688 39.964 172.688 37.388C 172.688 35.484 172.856 33.244 173.192 30.668C 173.528 28.092 173.696 26.51 173.696 25.922C 173.696 24.466 173.038 23.738 171.722 23.738C 170.322 23.738 168.768 25.054 167.06 27.686C 165.352 30.29 164.372 32.474 164.12 34.238C 164.176 35.05 164.456 37.136 164.96 40.496C 164.092 40.832 163.14 41 162.104 41C 159.948 41 158.87 39.95 158.87 37.85C 158.87 36.842 159.024 34.868 159.332 31.928C 159.64 28.96 159.794 26.58 159.794 24.788C 159.794 18.824 159.458 13.896 158.786 10.004C 159.682 9.668 160.606 9.5 161.558 9.5C 162.51 9.5 163.294 9.822 163.91 10.466C 164.554 11.082 164.876 11.936 164.876 13.028C 164.876 14.12 164.722 16.374 164.414 19.79C 164.134 23.206 163.994 25.866 163.994 27.77C 164.974 25.698 166.402 23.808 168.278 22.1C 170.182 20.364 172.072 19.496 173.948 19.496C 176.776 19.496 178.19 21.008 178.19 24.032ZM 187.052 31.466C 187.052 33.482 187.374 35.078 188.018 36.254C 188.662 37.402 189.74 37.976 191.252 37.976C 192.764 37.976 193.94 37.472 194.78 36.464C 195.648 35.428 196.082 34.182 196.082 32.726C 197.034 32.726 197.86 32.964 198.56 33.44C 199.26 33.916 199.61 34.574 199.61 35.414C 199.61 37.15 198.686 38.606 196.838 39.782C 194.99 40.93 193.044 41.504 191 41.504C 187.808 41.504 185.498 40.65 184.07 38.942C 182.642 37.206 181.928 34.644 181.928 31.256C 181.928 27.868 182.88 25.026 184.784 22.73C 186.716 20.406 189.278 19.244 192.47 19.244C 194.654 19.244 196.404 19.748 197.72 20.756C 199.064 21.736 199.736 23.276 199.736 25.376C 199.736 27.448 198.784 29.016 196.88 30.08C 195.004 31.116 192.708 31.634 189.992 31.634C 189.04 31.634 188.06 31.578 187.052 31.466ZM 187.094 28.148C 187.934 28.316 188.816 28.4 189.74 28.4C 191.756 28.4 193.45 28.022 194.822 27.266C 194.99 26.594 195.074 26.062 195.074 25.67C 195.074 24.69 194.724 23.948 194.024 23.444C 193.324 22.94 192.358 22.688 191.126 22.688C 189.922 22.688 188.83 23.08 187.85 23.864C 187.346 25.32 187.094 26.748 187.094 28.148ZM 209.872 40.496C 209.004 40.832 208.08 41 207.1 41C 206.12 41 205.322 40.776 204.706 40.328C 204.118 39.852 203.824 39.208 203.824 38.396C 203.824 37.556 203.95 36.044 204.202 33.86C 204.454 31.676 204.58 29.562 204.58 27.518C 204.58 25.446 204.258 23.024 203.614 20.252C 204.51 19.916 205.392 19.748 206.26 19.748C 207.128 19.748 207.87 20.042 208.486 20.63C 209.13 21.218 209.452 22.002 209.452 22.982C 209.452 23.486 209.368 24.242 209.2 25.25C 209.032 26.23 208.934 26.972 208.906 27.476C 209.998 24.984 211.286 23.038 212.77 21.638C 214.282 20.21 215.78 19.496 217.264 19.496C 218.3 19.496 219.126 19.86 219.742 20.588C 220.358 21.316 220.666 22.24 220.666 23.36C 220.666 24.452 220.386 25.348 219.826 26.048C 219.266 26.72 218.566 27.056 217.726 27.056C 216.914 27.056 216.256 26.972 215.752 26.804C 215.836 26.468 215.878 26.16 215.878 25.88C 215.878 24.732 215.472 24.158 214.66 24.158C 213.428 24.158 212.266 25.404 211.174 27.896C 210.11 30.36 209.396 32.67 209.032 34.826C 209.172 36.926 209.452 38.816 209.872 40.496ZM 236.931 34.154C 236.931 33.65 236.805 30.374 236.552 24.326C 235.18 24.41 234.089 24.648 233.277 25.04C 232.941 24.424 232.772 23.78 232.772 23.108C 232.772 22.436 233.01 21.89 233.486 21.47C 233.963 21.022 234.523 20.798 235.166 20.798C 235.811 20.798 236.273 20.812 236.552 20.84C 236.693 17.676 237.771 15.002 239.787 12.818C 241.803 10.606 244.336 9.5 247.388 9.5C 249.096 9.5 250.539 9.864 251.715 10.592C 252.89 11.32 253.478 12.398 253.478 13.826C 253.478 14.834 253.1 15.688 252.344 16.388C 251.588 17.088 250.693 17.438 249.657 17.438C 249.432 17.438 249.152 17.41 248.816 17.354C 248.9 16.99 248.942 16.668 248.942 16.388C 248.942 15.408 248.732 14.624 248.312 14.036C 247.893 13.42 247.151 13.112 246.086 13.112C 245.023 13.112 244.043 13.42 243.147 14.036C 242.586 14.792 242.138 15.842 241.802 17.186C 241.467 18.53 241.299 19.846 241.299 21.134L 242.265 21.134C 244.112 21.134 246.31 20.84 248.859 20.252C 249.195 20.812 249.363 21.484 249.363 22.268C 249.363 23.024 249.041 23.654 248.397 24.158C 247.753 24.662 246.941 24.914 245.961 24.914C 245.932 24.914 244.35 24.718 241.215 24.326L 241.635 46.166C 241.635 47.986 240.557 48.896 238.4 48.896C 237.672 48.896 236.72 48.728 235.545 48.392C 236.469 44.724 236.931 39.978 236.931 34.154ZM 257.204 40.496C 256.336 40.832 255.412 41 254.432 41C 253.452 41 252.654 40.776 252.038 40.328C 251.45 39.852 251.156 39.208 251.156 38.396C 251.156 37.556 251.282 36.044 251.534 33.86C 251.786 31.676 251.912 29.562 251.912 27.518C 251.912 25.446 251.59 23.024 250.946 20.252C 251.842 19.916 252.724 19.748 253.592 19.748C 254.46 19.748 255.202 20.042 255.818 20.63C 256.462 21.218 256.784 22.002 256.784 22.982C 256.784 23.486 256.7 24.242 256.532 25.25C 256.364 26.23 256.266 26.972 256.238 27.476C 257.33 24.984 258.618 23.038 260.102 21.638C 261.614 20.21 263.112 19.496 264.596 19.496C 265.632 19.496 266.458 19.86 267.074 20.588C 267.69 21.316 267.998 22.24 267.998 23.36C 267.998 24.452 267.718 25.348 267.158 26.048C 266.598 26.72 265.898 27.056 265.058 27.056C 264.246 27.056 263.588 26.972 263.084 26.804C 263.168 26.468 263.21 26.16 263.21 25.88C 263.21 24.732 262.804 24.158 261.992 24.158C 260.76 24.158 259.598 25.404 258.506 27.896C 257.442 30.36 256.728 32.67 256.364 34.826C 256.504 36.926 256.784 38.816 257.204 40.496ZM 274.005 31.466C 274.005 33.482 274.327 35.078 274.971 36.254C 275.615 37.402 276.693 37.976 278.205 37.976C 279.717 37.976 280.893 37.472 281.733 36.464C 282.601 35.428 283.035 34.182 283.035 32.726C 283.987 32.726 284.813 32.964 285.513 33.44C 286.213 33.916 286.563 34.574 286.563 35.414C 286.563 37.15 285.639 38.606 283.791 39.782C 281.943 40.93 279.997 41.504 277.953 41.504C 274.761 41.504 272.451 40.65 271.023 38.942C 269.595 37.206 268.881 34.644 268.881 31.256C 268.881 27.868 269.833 25.026 271.737 22.73C 273.669 20.406 276.231 19.244 279.423 19.244C 281.607 19.244 283.357 19.748 284.673 20.756C 286.017 21.736 286.689 23.276 286.689 25.376C 286.689 27.448 285.737 29.016 283.833 30.08C 281.957 31.116 279.661 31.634 276.945 31.634C 275.993 31.634 275.013 31.578 274.005 31.466ZM 274.047 28.148C 274.887 28.316 275.769 28.4 276.693 28.4C 278.709 28.4 280.403 28.022 281.775 27.266C 281.943 26.594 282.027 26.062 282.027 25.67C 282.027 24.69 281.677 23.948 280.977 23.444C 280.277 22.94 279.311 22.688 278.079 22.688C 276.875 22.688 275.783 23.08 274.803 23.864C 274.299 25.32 274.047 26.748 274.047 28.148ZM 294.431 31.466C 294.431 33.482 294.753 35.078 295.397 36.254C 296.041 37.402 297.119 37.976 298.631 37.976C 300.143 37.976 301.319 37.472 302.159 36.464C 303.027 35.428 303.461 34.182 303.461 32.726C 304.413 32.726 305.239 32.964 305.939 33.44C 306.639 33.916 306.989 34.574 306.989 35.414C 306.989 37.15 306.065 38.606 304.217 39.782C 302.369 40.93 300.423 41.504 298.379 41.504C 295.187 41.504 292.877 40.65 291.449 38.942C 290.021 37.206 289.307 34.644 289.307 31.256C 289.307 27.868 290.259 25.026 292.163 22.73C 294.095 20.406 296.657 19.244 299.849 19.244C 302.033 19.244 303.783 19.748 305.099 20.756C 306.443 21.736 307.115 23.276 307.115 25.376C 307.115 27.448 306.163 29.016 304.259 30.08C 302.383 31.116 300.087 31.634 297.371 31.634C 296.419 31.634 295.439 31.578 294.431 31.466ZM 294.473 28.148C 295.313 28.316 296.195 28.4 297.119 28.4C 299.135 28.4 300.829 28.022 302.201 27.266C 302.369 26.594 302.453 26.062 302.453 25.67C 302.453 24.69 302.103 23.948 301.403 23.444C 300.703 22.94 299.737 22.688 298.505 22.688C 297.301 22.688 296.209 23.08 295.229 23.864C 294.725 25.32 294.473 26.748 294.473 28.148ZM 325.114 34.154C 325.114 33.65 324.988 30.374 324.736 24.326C 323.364 24.41 322.272 24.648 321.46 25.04C 321.124 24.424 320.956 23.78 320.956 23.108C 320.956 22.436 321.194 21.89 321.67 21.47C 322.146 21.022 322.706 20.798 323.35 20.798C 323.994 20.798 324.456 20.812 324.736 20.84C 324.876 17.676 325.954 15.002 327.97 12.818C 329.986 10.606 332.52 9.5 335.572 9.5C 337.28 9.5 338.722 9.864 339.898 10.592C 341.074 11.32 341.662 12.398 341.662 13.826C 341.662 14.834 341.284 15.688 340.528 16.388C 339.772 17.088 338.876 17.438 337.84 17.438C 337.616 17.438 337.336 17.41 337 17.354C 337.084 16.99 337.126 16.668 337.126 16.388C 337.126 15.408 336.916 14.624 336.496 14.036C 336.076 13.42 335.334 13.112 334.27 13.112C 333.206 13.112 332.226 13.42 331.33 14.036C 330.77 14.792 330.322 15.842 329.986 17.186C 329.65 18.53 329.482 19.846 329.482 21.134L 330.448 21.134C 332.296 21.134 334.494 20.84 337.042 20.252C 337.378 20.812 337.546 21.484 337.546 22.268C 337.546 23.024 337.224 23.654 336.58 24.158C 335.936 24.662 335.124 24.914 334.144 24.914C 334.116 24.914 332.534 24.718 329.398 24.326L 329.818 46.166C 329.818 47.986 328.74 48.896 326.584 48.896C 325.856 48.896 324.904 48.728 323.728 48.392C 324.652 44.724 325.114 39.978 325.114 34.154ZM 339.675 36.716L 340.095 27.98C 340.095 25.264 339.703 22.688 338.919 20.252C 339.703 19.916 340.669 19.748 341.817 19.748C 344.057 19.748 345.177 20.994 345.177 23.486C 345.177 24.886 345.023 26.86 344.715 29.408C 344.407 31.928 344.253 33.762 344.253 34.91C 344.253 36.31 344.883 37.01 346.143 37.01C 346.899 37.01 347.781 36.38 348.789 35.12C 349.825 33.832 350.707 32.404 351.435 30.836C 352.191 29.24 352.639 27.938 352.779 26.93C 352.611 23.85 352.373 21.624 352.065 20.252C 352.961 19.916 353.871 19.748 354.795 19.748C 355.747 19.748 356.531 20.042 357.147 20.63C 357.791 21.218 358.113 21.946 358.113 22.814C 358.113 23.682 357.987 25.124 357.735 27.14C 357.483 29.156 357.357 31.27 357.357 33.482C 357.357 35.666 357.609 38.004 358.113 40.496C 357.021 40.832 356.041 41 355.173 41C 353.437 41 352.569 39.852 352.569 37.556C 352.569 36.548 352.681 35.148 352.905 33.356C 351.785 35.736 350.413 37.654 348.789 39.11C 347.193 40.538 345.569 41.252 343.917 41.252C 341.089 41.252 339.675 39.74 339.675 36.716ZM 362.849 10.004C 363.745 9.668 364.669 9.5 365.621 9.5C 366.573 9.5 367.357 9.822 367.973 10.466C 368.617 11.082 368.939 11.936 368.939 13.028C 368.939 14.092 368.785 16.248 368.477 19.496C 368.197 22.716 368.057 25.25 368.057 27.098C 368.057 31.662 368.379 36.128 369.023 40.496C 368.127 40.832 367.175 41 366.167 41C 364.011 41 362.933 39.95 362.933 37.85C 362.933 36.842 363.087 34.868 363.395 31.928C 363.703 28.96 363.857 26.58 363.857 24.788C 363.857 18.824 363.521 13.896 362.849 10.004ZM 374.128 10.004C 375.024 9.668 375.948 9.5 376.9 9.5C 377.852 9.5 378.636 9.822 379.252 10.466C 379.896 11.082 380.218 11.936 380.218 13.028C 380.218 14.092 380.064 16.248 379.756 19.496C 379.476 22.716 379.336 25.25 379.336 27.098C 379.336 31.662 379.658 36.128 380.302 40.496C 379.406 40.832 378.454 41 377.446 41C 375.29 41 374.212 39.95 374.212 37.85C 374.212 36.842 374.366 34.868 374.674 31.928C 374.982 28.96 375.136 26.58 375.136 24.788C 375.136 18.824 374.8 13.896 374.128 10.004ZM 390.364 36.884C 391.512 37.304 392.842 37.514 394.354 37.514C 395.866 37.514 397.196 37.22 398.344 36.632C 399.716 34.28 400.402 31.466 400.402 28.19C 400.402 24.886 399.828 23.234 398.68 23.234C 397.252 23.234 395.642 24.676 393.85 27.56C 392.086 30.444 390.924 33.552 390.364 36.884ZM 390.364 28.274C 393.332 22.422 396.622 19.496 400.234 19.496C 402.138 19.496 403.496 20.28 404.308 21.848C 405.148 23.388 405.568 25.348 405.568 27.728C 405.568 31.144 404.56 34.252 402.544 37.052C 400.528 39.852 397.994 41.252 394.942 41.252C 393.206 41.252 391.624 40.972 390.196 40.412C 390.252 44.248 390.49 47.762 390.91 50.954C 390.014 51.29 389.09 51.458 388.138 51.458C 387.186 51.458 386.402 51.136 385.786 50.492C 385.17 49.876 384.862 48.924 384.862 47.636C 384.862 46.348 385.03 44.15 385.366 41.042C 385.702 37.934 385.87 35.498 385.87 33.734C 385.87 27.91 385.562 23.416 384.946 20.252C 385.842 19.916 386.78 19.748 387.76 19.748C 388.768 19.748 389.538 20.042 390.07 20.63C 390.63 21.19 390.91 22.086 390.91 23.318C 390.91 24.522 390.728 26.174 390.364 28.274ZM 428.216 21.218C 427.46 24.438 427.082 27.672 427.082 30.92C 427.082 34.14 427.446 37.332 428.174 40.496C 427.166 40.832 426.13 41 425.066 41C 424.002 41 423.26 40.692 422.84 40.076C 422.42 39.432 422.21 38.522 422.21 37.346C 422.21 36.142 422.392 34.504 422.756 32.432C 420.768 36.688 418.85 39.376 417.002 40.496C 416.162 41 415.294 41.252 414.398 41.252C 412.27 41.252 410.618 40.468 409.442 38.9C 408.266 37.304 407.678 35.33 407.678 32.978C 407.678 29.394 408.672 26.258 410.66 23.57C 412.648 20.854 415.224 19.496 418.388 19.496C 421.58 19.496 424.856 20.07 428.216 21.218ZM 422.714 23.738C 421.23 23.29 419.97 23.066 418.934 23.066C 416.834 23.066 415.266 23.528 414.23 24.452C 413.278 26.804 412.802 29.198 412.802 31.634C 412.802 32.922 412.998 34.224 413.39 35.54C 413.81 36.856 414.44 37.514 415.28 37.514C 416.26 37.514 417.52 36.072 419.06 33.188C 420.6 30.304 421.818 27.154 422.714 23.738ZM 446.189 23.738C 444.705 23.29 443.235 23.066 441.779 23.066C 440.323 23.066 438.951 23.5 437.663 24.368C 436.655 26.384 436.151 28.526 436.151 30.794C 436.151 32.11 436.333 33.398 436.697 34.658C 437.061 35.89 437.663 36.506 438.503 36.506C 439.455 36.506 440.729 35.148 442.325 32.432C 443.921 29.716 445.209 26.818 446.189 23.738ZM 439.889 47.888C 441.681 47.888 443.081 47.272 444.089 46.04C 445.097 44.808 445.601 43.226 445.601 41.294C 445.601 40.342 445.531 38.956 445.391 37.136C 445.279 35.316 445.209 34.028 445.181 33.272C 443.193 36.744 441.457 38.872 439.973 39.656C 439.217 40.048 438.419 40.244 437.579 40.244C 435.479 40.244 433.855 39.418 432.707 37.766C 431.559 36.114 430.985 34.098 430.985 31.718C 430.985 28.47 431.993 25.628 434.009 23.192C 436.053 20.728 438.629 19.496 441.737 19.496C 444.873 19.496 448.037 20.042 451.229 21.134C 450.389 24.13 449.969 27.07 449.969 29.954C 449.969 31.326 450.067 33.034 450.263 35.078C 450.459 37.094 450.557 38.592 450.557 39.572C 450.557 43.016 449.465 45.858 447.281 48.098C 445.097 50.366 442.297 51.5 438.881 51.5C 436.865 51.5 435.129 51.108 433.673 50.324C 432.245 49.568 431.531 48.378 431.531 46.754C 431.531 45.746 431.909 44.892 432.665 44.192C 433.421 43.492 434.317 43.142 435.353 43.142C 435.577 43.142 435.857 43.17 436.193 43.226C 436.109 43.59 436.067 43.912 436.067 44.192C 436.067 45.2 436.445 46.068 437.201 46.796C 437.957 47.524 438.853 47.888 439.889 47.888ZM 458.862 31.466C 458.862 33.482 459.184 35.078 459.828 36.254C 460.472 37.402 461.55 37.976 463.062 37.976C 464.574 37.976 465.75 37.472 466.59 36.464C 467.458 35.428 467.892 34.182 467.892 32.726C 468.844 32.726 469.67 32.964 470.37 33.44C 471.07 33.916 471.42 34.574 471.42 35.414C 471.42 37.15 470.496 38.606 468.648 39.782C 466.8 40.93 464.854 41.504 462.81 41.504C 459.618 41.504 457.308 40.65 455.88 38.942C 454.452 37.206 453.738 34.644 453.738 31.256C 453.738 27.868 454.69 25.026 456.594 22.73C 458.526 20.406 461.088 19.244 464.28 19.244C 466.464 19.244 468.214 19.748 469.53 20.756C 470.874 21.736 471.546 23.276 471.546 25.376C 471.546 27.448 470.594 29.016 468.69 30.08C 466.814 31.116 464.518 31.634 461.802 31.634C 460.85 31.634 459.87 31.578 458.862 31.466ZM 458.904 28.148C 459.744 28.316 460.626 28.4 461.55 28.4C 463.566 28.4 465.26 28.022 466.632 27.266C 466.8 26.594 466.884 26.062 466.884 25.67C 466.884 24.69 466.534 23.948 465.834 23.444C 465.134 22.94 464.168 22.688 462.936 22.688C 461.732 22.688 460.64 23.08 459.66 23.864C 459.156 25.32 458.904 26.748 458.904 28.148ZM 476.18 35.372C 477.076 34.896 477.986 34.658 478.91 34.658C 480.982 34.658 482.018 35.624 482.018 37.556C 482.018 38.592 481.668 39.474 480.968 40.202C 480.268 40.902 479.428 41.252 478.448 41.252C 477.468 41.252 476.712 40.972 476.18 40.412C 475.676 39.852 475.424 39.096 475.424 38.144C 475.424 37.164 475.676 36.24 476.18 35.372ZM 486.757 10.634C 487.737 10.186 488.703 9.962 489.655 9.962C 490.607 9.962 491.307 10.214 491.755 10.718C 492.231 11.194 492.469 11.908 492.469 12.86C 492.469 13.812 492.147 14.652 491.503 15.38C 490.887 16.108 490.075 16.472 489.067 16.472C 486.995 16.472 485.959 15.394 485.959 13.238C 485.959 12.286 486.225 11.418 486.757 10.634ZM 481.717 44.234C 481.633 44.626 481.591 44.948 481.591 45.2C 481.591 46.992 482.291 47.888 483.691 47.888C 484.503 47.888 485.189 47.384 485.749 46.376C 486.337 45.396 486.757 44.136 487.009 42.596C 487.457 39.852 487.681 37.262 487.681 34.826C 487.681 30.066 487.163 25.306 486.127 20.546C 486.995 20.014 487.975 19.748 489.067 19.748C 490.187 19.748 491.055 20.042 491.671 20.63C 492.315 21.218 492.637 22.002 492.637 22.982C 492.637 27.07 492.371 32.46 491.839 39.152C 491.363 45.116 489.655 48.91 486.715 50.534C 485.567 51.178 484.223 51.5 482.683 51.5C 481.115 51.5 479.785 51.15 478.693 50.45C 477.601 49.778 477.055 48.882 477.055 47.762C 477.055 46.642 477.447 45.76 478.231 45.116C 478.987 44.472 479.869 44.15 480.877 44.15C 481.101 44.15 481.381 44.178 481.717 44.234ZM 500.861 33.356C 500.777 33.748 500.735 34.07 500.735 34.322C 500.735 35.47 501.071 36.352 501.743 36.968C 502.443 37.584 503.367 37.892 504.515 37.892C 505.691 37.892 506.657 37.682 507.413 37.262C 508.197 36.814 508.589 36.156 508.589 35.288C 508.589 34.42 508.169 33.734 507.329 33.23C 506.517 32.698 505.523 32.278 504.347 31.97C 503.199 31.662 502.037 31.326 500.861 30.962C 499.685 30.57 498.677 29.968 497.837 29.156C 497.025 28.344 496.619 27.322 496.619 26.09C 496.619 24.158 497.641 22.534 499.685 21.218C 501.729 19.902 503.871 19.244 506.111 19.244C 508.575 19.244 510.451 19.748 511.739 20.756C 512.495 21.344 512.873 22.128 512.873 23.108C 512.873 24.06 512.495 24.844 511.739 25.46C 511.011 26.048 510.115 26.342 509.051 26.342C 508.827 26.342 508.547 26.314 508.211 26.258C 508.295 25.894 508.337 25.572 508.337 25.292C 508.337 24.48 508.029 23.864 507.413 23.444C 506.797 23.024 505.957 22.814 504.893 22.814C 503.857 22.814 502.905 23.024 502.037 23.444C 501.701 23.892 501.533 24.466 501.533 25.166C 501.533 25.866 501.939 26.44 502.751 26.888C 503.563 27.308 504.543 27.686 505.691 28.022C 506.867 28.33 508.043 28.694 509.219 29.114C 510.395 29.506 511.389 30.136 512.201 31.004C 513.013 31.844 513.419 32.908 513.419 34.196C 513.419 36.296 512.369 38.046 510.269 39.446C 508.197 40.818 506.055 41.504 503.843 41.504C 501.631 41.504 499.797 41.112 498.341 40.328C 496.913 39.516 496.199 38.298 496.199 36.674C 496.199 35.666 496.563 34.854 497.291 34.238C 498.047 33.594 498.957 33.272 500.021 33.272C 500.245 33.272 500.525 33.3 500.861 33.356ZM 529.728 13.574C 530.624 13.126 531.534 12.902 532.458 12.902C 533.382 12.902 534.124 13.196 534.684 13.784C 535.272 14.372 535.566 15.24 535.566 16.388C 535.566 17.536 535.496 18.838 535.356 20.294C 537.456 20.294 539.458 20 541.362 19.412C 541.698 19.972 541.866 20.63 541.866 21.386C 541.866 22.114 541.53 22.716 540.858 23.192C 540.214 23.64 539.556 23.864 538.884 23.864C 538.212 23.864 537.456 23.78 536.616 23.612C 535.776 23.444 535.23 23.346 534.978 23.318C 534.95 23.57 534.866 24.074 534.726 24.83C 534.614 25.586 534.516 26.244 534.432 26.804C 534.208 28.344 534.096 29.996 534.096 31.76C 534.096 35.596 535.342 37.514 537.834 37.514C 538.758 37.514 539.822 37.192 541.026 36.548C 541.39 37.08 541.572 37.766 541.572 38.606C 541.572 39.446 541.11 40.104 540.186 40.58C 539.29 41.028 538.212 41.252 536.952 41.252C 532.024 41.252 529.56 38.452 529.56 32.852C 529.56 32.04 529.672 30.57 529.896 28.442C 530.148 26.314 530.274 24.592 530.274 23.276C 528.93 23.36 527.852 23.598 527.04 23.99C 526.704 23.486 526.536 22.912 526.536 22.268C 526.536 21.596 526.774 21.05 527.25 20.63C 527.726 20.182 528.314 19.958 529.014 19.958C 529.714 19.958 530.176 19.972 530.4 20C 530.428 19.776 530.442 19.482 530.442 19.118C 530.442 17.018 530.204 15.17 529.728 13.574ZM 564.065 24.032L 563.645 33.272C 563.645 35.736 564.051 38.228 564.863 40.748C 563.995 41.084 563.113 41.252 562.217 41.252C 559.781 41.252 558.563 39.964 558.563 37.388C 558.563 35.484 558.731 33.244 559.067 30.668C 559.403 28.092 559.571 26.51 559.571 25.922C 559.571 24.466 558.913 23.738 557.597 23.738C 556.197 23.738 554.643 25.054 552.935 27.686C 551.227 30.29 550.247 32.474 549.995 34.238C 550.051 35.05 550.331 37.136 550.835 40.496C 549.967 40.832 549.015 41 547.979 41C 545.823 41 544.745 39.95 544.745 37.85C 544.745 36.842 544.899 34.868 545.207 31.928C 545.515 28.96 545.669 26.58 545.669 24.788C 545.669 18.824 545.333 13.896 544.661 10.004C 545.557 9.668 546.481 9.5 547.433 9.5C 548.385 9.5 549.169 9.822 549.785 10.466C 550.429 11.082 550.751 11.936 550.751 13.028C 550.751 14.12 550.597 16.374 550.289 19.79C 550.009 23.206 549.869 25.866 549.869 27.77C 550.849 25.698 552.277 23.808 554.153 22.1C 556.057 20.364 557.947 19.496 559.823 19.496C 562.651 19.496 564.065 21.008 564.065 24.032ZM 572.927 31.466C 572.927 33.482 573.249 35.078 573.893 36.254C 574.537 37.402 575.615 37.976 577.127 37.976C 578.639 37.976 579.815 37.472 580.655 36.464C 581.523 35.428 581.957 34.182 581.957 32.726C 582.909 32.726 583.735 32.964 584.435 33.44C 585.135 33.916 585.485 34.574 585.485 35.414C 585.485 37.15 584.561 38.606 582.713 39.782C 580.865 40.93 578.919 41.504 576.875 41.504C 573.683 41.504 571.373 40.65 569.945 38.942C 568.517 37.206 567.803 34.644 567.803 31.256C 567.803 27.868 568.755 25.026 570.659 22.73C 572.591 20.406 575.153 19.244 578.345 19.244C 580.529 19.244 582.279 19.748 583.595 20.756C 584.939 21.736 585.611 23.276 585.611 25.376C 585.611 27.448 584.659 29.016 582.755 30.08C 580.879 31.116 578.583 31.634 575.867 31.634C 574.915 31.634 573.935 31.578 572.927 31.466ZM 572.969 28.148C 573.809 28.316 574.691 28.4 575.615 28.4C 577.631 28.4 579.325 28.022 580.697 27.266C 580.865 26.594 580.949 26.062 580.949 25.67C 580.949 24.69 580.599 23.948 579.899 23.444C 579.199 22.94 578.233 22.688 577.001 22.688C 575.797 22.688 574.705 23.08 573.725 23.864C 573.221 25.32 572.969 26.748 572.969 28.148ZM 621.661 24.032L 621.241 33.02C 621.241 35.736 621.633 38.312 622.417 40.748C 621.633 41.084 620.737 41.252 619.729 41.252C 617.349 41.252 616.159 39.922 616.159 37.262C 616.159 36.058 616.313 34.042 616.621 31.214C 616.929 28.358 617.083 26.566 617.083 25.838C 617.083 24.438 616.509 23.738 615.361 23.738C 614.101 23.738 612.589 25.026 610.825 27.602C 609.089 30.178 608.221 32.194 608.221 33.65C 608.361 35.862 608.753 38.06 609.397 40.244C 608.333 40.58 607.437 40.748 606.709 40.748C 604.329 40.748 603.139 39.418 603.139 36.758C 603.139 35.638 603.293 33.762 603.601 31.13C 603.909 28.498 604.063 26.846 604.063 26.174C 604.063 24.774 603.433 24.074 602.173 24.074C 601.305 24.074 600.311 24.718 599.191 26.006C 598.071 27.294 597.119 28.722 596.335 30.29C 595.579 31.83 595.173 33.062 595.117 33.986C 595.257 36.394 595.537 38.564 595.957 40.496C 595.061 40.832 594.123 41 593.143 41C 592.191 41 591.407 40.776 590.791 40.328C 590.203 39.852 589.909 39.208 589.909 38.396C 589.909 37.556 590.035 36.072 590.287 33.944C 590.539 31.788 590.665 29.66 590.665 27.56C 590.665 25.432 590.343 22.996 589.699 20.252C 590.595 19.916 591.547 19.748 592.555 19.748C 593.563 19.748 594.375 20.042 594.991 20.63C 595.635 21.218 595.957 22.002 595.957 22.982C 595.957 23.486 595.859 24.718 595.663 26.678C 596.699 24.83 598.015 23.234 599.611 21.89C 601.207 20.518 602.803 19.832 604.399 19.832C 607.227 19.832 608.641 21.344 608.641 24.368C 608.641 25.124 608.599 25.964 608.515 26.888C 609.551 24.928 610.881 23.206 612.505 21.722C 614.157 20.238 615.795 19.496 617.419 19.496C 620.247 19.496 621.661 21.008 621.661 24.032ZM 630.472 31.466C 630.472 33.482 630.794 35.078 631.438 36.254C 632.082 37.402 633.16 37.976 634.672 37.976C 636.184 37.976 637.36 37.472 638.2 36.464C 639.068 35.428 639.502 34.182 639.502 32.726C 640.454 32.726 641.28 32.964 641.98 33.44C 642.68 33.916 643.03 34.574 643.03 35.414C 643.03 37.15 642.106 38.606 640.258 39.782C 638.41 40.93 636.464 41.504 634.42 41.504C 631.228 41.504 628.918 40.65 627.49 38.942C 626.062 37.206 625.348 34.644 625.348 31.256C 625.348 27.868 626.3 25.026 628.204 22.73C 630.136 20.406 632.698 19.244 635.89 19.244C 638.074 19.244 639.824 19.748 641.14 20.756C 642.484 21.736 643.156 23.276 643.156 25.376C 643.156 27.448 642.204 29.016 640.3 30.08C 638.424 31.116 636.128 31.634 633.412 31.634C 632.46 31.634 631.48 31.578 630.472 31.466ZM 630.514 28.148C 631.354 28.316 632.236 28.4 633.16 28.4C 635.176 28.4 636.87 28.022 638.242 27.266C 638.41 26.594 638.494 26.062 638.494 25.67C 638.494 24.69 638.144 23.948 637.444 23.444C 636.744 22.94 635.778 22.688 634.546 22.688C 633.342 22.688 632.25 23.08 631.27 23.864C 630.766 25.32 630.514 26.748 630.514 28.148Z" transform="translate(148 578)" fill="#646464"/>
</g>
<g id="Line">
<line y1="-1.5" x2="622" y2="-1.5" stroke-width="3" transform="translate(189 526)" stroke="#535353"/>
</g>
</g>
</g>
<defs>

<mask id="path0_ins" fill="white">
<rect width="1000" height="1000" rx="2"/>
</mask>

</defs>
</svg>

